<svg width="1069" height="500" viewBox="0 0 1069 500" fill="none" xmlns="http://www.w3.org/2000/svg">
<path d="M316.752 391.732H328.312V380.172H316.752V391.732ZM316.752 483V494.56H328.312V483H316.752ZM36.9644 483H25.4044V494.56H36.9644V483ZM36.9644 410.684L29.1152 402.198L25.4044 405.63V410.684H36.9644ZM163.143 293.981L170.992 302.468L171.025 302.438L171.058 302.407L163.143 293.981ZM185.087 267.549L195.427 272.718L185.087 267.549ZM181.596 226.154L173.948 234.822L174.216 235.059L174.499 235.279L181.596 226.154ZM126.736 227.152L132.735 237.033H132.735L126.736 227.152ZM105.29 251.091L100.121 261.43L110.595 266.667L115.696 256.126L105.29 251.091ZM16.5165 206.704L6.31651 201.264L0.731466 211.736L11.3467 217.043L16.5165 206.704ZM74.8679 147.853L80.5042 157.946L80.5539 157.919L80.6033 157.89L74.8679 147.853ZM240.945 139.375L236.452 150.026L240.945 139.375ZM290.818 177.777L281.437 184.532L290.818 177.777ZM296.304 289.493L285.924 284.405L285.903 284.447L285.882 284.49L296.304 289.493ZM248.925 346.348L241.185 337.762L241.165 337.78L241.144 337.798L248.925 346.348ZM199.052 391.732L191.271 383.183L169.173 403.292H199.052V391.732ZM305.192 391.732V483H328.312V391.732H305.192ZM316.752 471.44H36.9644V494.56H316.752V471.44ZM48.5244 483V410.684H25.4044V483H48.5244ZM44.8137 419.171L170.992 302.468L155.294 285.495L29.1152 402.198L44.8137 419.171ZM171.058 302.407C182.334 291.815 190.845 281.882 195.427 272.718L174.748 262.379C172.015 267.845 165.897 275.534 155.228 285.556L171.058 302.407ZM195.427 272.718C199.75 264.073 202.133 255.163 202.133 246.103H179.013C179.013 251.008 177.74 256.395 174.748 262.379L195.427 272.718ZM202.133 246.103C202.133 234.459 197.913 224.2 188.693 217.029L174.499 235.279C177.248 237.417 179.013 240.459 179.013 246.103H202.133ZM189.244 217.486C180.696 209.943 169.188 207.113 156.66 207.113V230.233C166.075 230.233 171.192 232.391 173.948 234.822L189.244 217.486ZM156.66 207.113C143.852 207.113 131.81 210.547 120.736 217.27L132.735 237.033C140.281 232.451 148.188 230.233 156.66 230.233V207.113ZM120.736 217.27C109.421 224.14 100.79 233.85 94.8846 246.055L115.696 256.126C119.765 247.717 125.431 241.467 132.735 237.033L120.736 217.27ZM110.46 240.751L21.6863 196.364L11.3467 217.043L100.121 261.43L110.46 240.751ZM26.7165 212.144C38.9319 189.24 56.7621 171.205 80.5042 157.946L69.2316 137.761C41.7708 153.096 20.7 174.294 6.31651 201.264L26.7165 212.144ZM80.6033 157.89C104.1 144.464 132.945 137.469 167.632 137.469V114.349C129.836 114.349 96.8391 121.984 69.1326 137.817L80.6033 157.89ZM167.632 137.469C193.98 137.469 216.843 141.754 236.452 150.026L245.438 128.724C222.488 119.042 196.477 114.349 167.632 114.349V137.469ZM236.452 150.026C256.03 158.286 270.86 169.842 281.437 184.532L300.199 171.023C286.837 152.463 268.418 138.419 245.438 128.724L236.452 150.026ZM281.437 184.532C291.909 199.077 297.212 215.802 297.212 235.131H320.332C320.332 211.237 313.666 189.726 300.199 171.023L281.437 184.532ZM297.212 235.131C297.212 252.69 293.443 269.066 285.924 284.405L306.684 294.581C315.789 276.006 320.332 256.141 320.332 235.131H297.212ZM285.882 284.49C278.863 299.114 264.364 316.867 241.185 337.762L256.665 354.934C280.698 333.271 297.785 313.121 306.726 294.495L285.882 284.49ZM241.144 337.798L191.271 383.183L206.832 400.282L256.705 354.898L241.144 337.798ZM199.052 403.292H316.752V380.172H199.052V403.292ZM732.794 133.889L743.441 138.391L750.233 122.329H732.794V133.889ZM585.17 483V494.56H592.833L595.817 487.502L585.17 483ZM469.465 483L458.817 487.502L461.802 494.56H469.465V483ZM321.841 133.889V122.329H304.401L311.193 138.391L321.841 133.889ZM448.518 133.889L459.22 129.519L456.284 122.329H448.518V133.889ZM531.806 337.87L521.104 342.239L531.679 368.141L542.471 342.329L531.806 337.87ZM617.089 133.889V122.329H609.392L606.423 129.43L617.089 133.889ZM722.147 129.387L574.523 478.498L595.817 487.502L743.441 138.391L722.147 129.387ZM585.17 471.44H469.465V494.56H585.17V471.44ZM480.112 478.498L332.488 129.387L311.193 138.391L458.817 487.502L480.112 478.498ZM321.841 145.449H448.518V122.329H321.841V145.449ZM437.816 138.259L521.104 342.239L542.508 333.5L459.22 129.519L437.816 138.259ZM542.471 342.329L627.754 138.348L606.423 129.43L521.141 333.41L542.471 342.329ZM617.089 145.449H732.794V122.329H617.089V145.449ZM908.316 133.889H919.876V122.329H908.316V133.889ZM908.316 483V494.56H919.876V483H908.316ZM790.616 483H779.056V494.56H790.616V483ZM790.616 222.663H802.176V211.103H790.616V222.663ZM730.768 222.663H719.208V234.223H730.768V222.663ZM730.768 133.889V122.329H719.208V133.889H730.768ZM896.756 133.889V483H919.876V133.889H896.756ZM908.316 471.44H790.616V494.56H908.316V471.44ZM802.176 483V222.663H779.056V483H802.176ZM790.616 211.103H730.768V234.223H790.616V211.103ZM742.328 222.663V133.889H719.208V222.663H742.328ZM730.768 145.449H908.316V122.329H730.768V145.449Z" fill="white" fill-opacity="0.1"/>
</svg>
