<svg width="51" height="75" viewBox="0 0 51 75" fill="none" xmlns="http://www.w3.org/2000/svg">
<path d="M46.4999 0.616943H4.50026C2.19068 0.616943 0.300049 3.37471 0.300049 6.74971V68.0736C0.300049 71.4459 2.19068 74.2064 4.50026 74.2064H17.1003C19.4092 74.2064 21.2998 71.4459 21.2998 68.0736V55.809H33.8999V68.0736C33.8999 71.4459 35.7911 74.2064 38.1001 74.2064H46.4999C48.8094 74.2064 50.7001 71.4459 50.7001 68.0736V6.74971C50.7001 3.37471 48.8094 0.616943 46.4999 0.616943ZM17.1003 68.0736H4.50026V31.2789H17.1003V68.0736ZM46.4999 68.0736H38.1001V43.5444H46.4999V68.0736ZM46.4999 37.4117H38.1001C35.7911 37.4117 33.8999 40.1694 33.8999 43.5444V49.6763H21.2998V31.2789C21.2998 27.9048 19.4092 25.1471 17.1003 25.1471H4.50026V6.74971H46.4999V37.4117Z" fill="white"/>
<path d="M11.0998 64.2129C12.2595 64.2129 13.1996 63.2698 13.1996 62.1065C13.1996 60.9431 12.2595 60 11.0998 60C9.94011 60 9 60.9431 9 62.1065C9 63.2698 9.94011 64.2129 11.0998 64.2129Z" fill="white"/>
</svg>
