<svg width="20" height="20" viewBox="0 0 20 20" fill="none" xmlns="http://www.w3.org/2000/svg">
<path d="M16.294 2.49758C16.0841 2.50734 15.8863 2.56838 15.7106 2.63674H15.7081C15.5299 2.70754 14.6827 3.06398 13.3961 3.60353C12.1095 4.14552 10.4396 4.84865 8.78184 5.54689C5.47129 6.94093 2.2169 8.313 2.2169 8.313L2.25596 8.29836C2.25596 8.29836 2.03135 8.3716 1.79698 8.53273C1.67735 8.61086 1.54551 8.71828 1.43077 8.88673C1.31602 9.05519 1.22325 9.31398 1.25743 9.58009C1.31358 10.0318 1.60655 10.3028 1.81651 10.4517C2.02891 10.603 2.23155 10.6738 2.23155 10.6738H2.23643L5.28819 11.7017C5.42491 12.1411 6.21836 14.7486 6.40879 15.3491C6.5211 15.708 6.63096 15.9326 6.76768 16.1035C6.8336 16.1914 6.91172 16.2647 7.0045 16.3233C7.04112 16.3452 7.08018 16.3623 7.11924 16.377C7.13145 16.3843 7.14366 16.3867 7.1583 16.3892L7.12657 16.3819C7.13633 16.3843 7.14366 16.3916 7.15098 16.3941C7.17539 16.4014 7.19248 16.4038 7.22422 16.4087C7.70762 16.5552 8.0958 16.2549 8.0958 16.2549L8.11778 16.2378L9.91953 14.5972L12.9396 16.9141L13.0079 16.9434C13.6378 17.2193 14.275 17.0654 14.6119 16.7944C14.9513 16.521 15.0831 16.1719 15.0831 16.1719L15.1051 16.1157L17.4391 4.16017C17.505 3.86476 17.5221 3.58888 17.4488 3.32033C17.3756 3.05177 17.1876 2.80031 16.9606 2.66603C16.7311 2.52931 16.504 2.48781 16.294 2.49758ZM16.2306 3.77931C16.2281 3.81838 16.2355 3.81349 16.2184 3.88918V3.8965L13.9064 15.7276C13.8966 15.7446 13.8795 15.7813 13.8331 15.8179C13.7843 15.8569 13.7452 15.8814 13.5426 15.8008L9.84873 12.9688L7.61729 15.0025L8.08604 12.0093C8.08604 12.0093 13.8722 6.61623 14.1212 6.38429C14.3702 6.15236 14.2872 6.10353 14.2872 6.10353C14.3043 5.82033 13.9112 6.02052 13.9112 6.02052L6.30137 10.7349L6.29893 10.7227L2.65147 9.49465V9.4922C2.64903 9.4922 2.64414 9.48976 2.6417 9.48976C2.64414 9.48976 2.66123 9.48244 2.66123 9.48244L2.68077 9.47267L2.7003 9.46535C2.7003 9.46535 5.95713 8.09328 9.26768 6.69923C10.9254 6.00099 12.5953 5.29787 13.8795 4.75588C15.1637 4.21633 16.1134 3.82082 16.1671 3.79884C16.2184 3.77931 16.1939 3.77931 16.2306 3.77931Z" fill="white"/>
</svg>
