<svg width="25" height="25" viewBox="0 0 25 25" fill="none" xmlns="http://www.w3.org/2000/svg">
<path d="M23 12.7424C23 18.1231 18.6047 22.4849 13.1818 22.4849C11.4602 22.4849 9.84289 22.0449 8.43578 21.2727L3 23L4.77222 17.7729C3.87822 16.3049 3.36333 14.5831 3.36333 12.7424C3.36333 7.36178 7.75911 3 13.1818 3C18.6051 3 23 7.36178 23 12.7424ZM13.1818 4.55156C8.62978 4.55156 4.92711 8.226 4.92711 12.7424C4.92711 14.5347 5.51133 16.1944 6.49956 17.5447L5.46822 20.5867L8.64044 19.5784C9.94378 20.4342 11.5051 20.9333 13.182 20.9333C17.7333 20.9333 21.4367 17.2593 21.4367 12.7429C21.4367 8.22644 17.7336 4.55156 13.1818 4.55156ZM18.1398 14.9862C18.0791 14.8869 17.9189 14.8269 17.6784 14.7076C17.4376 14.5882 16.254 14.0102 16.034 13.9309C15.8133 13.8513 15.6524 13.8113 15.4922 14.0502C15.332 14.2893 14.8707 14.8269 14.73 14.9862C14.5896 15.146 14.4493 15.166 14.2084 15.0464C13.968 14.9271 13.1927 14.6747 12.2733 13.8613C11.558 13.2284 11.0749 12.4471 10.9344 12.2078C10.7942 11.9689 10.9198 11.8398 11.04 11.7209C11.1484 11.6138 11.2809 11.442 11.4011 11.3027C11.5218 11.1631 11.5618 11.0638 11.6416 10.9042C11.7222 10.7449 11.682 10.6056 11.6216 10.4858C11.5616 10.3664 11.0798 9.19133 10.8793 8.71311C10.6789 8.23533 10.4787 8.31489 10.338 8.31489C10.1978 8.31489 10.0371 8.29489 9.87667 8.29489C9.71622 8.29489 9.45533 8.35467 9.23467 8.59356C9.01422 8.83267 8.39267 9.41044 8.39267 10.5853C8.39267 11.7604 9.25467 12.8958 9.37533 13.0549C9.49556 13.214 11.0398 15.7038 13.4864 16.66C15.9333 17.6158 15.9333 17.2969 16.3747 17.2569C16.8156 17.2171 17.7982 16.6793 17.9996 16.122C18.1996 15.5638 18.1996 15.0858 18.1398 14.9862Z" fill="white"/>
</svg>
