<svg width="63" height="79" viewBox="0 0 63 79" fill="none" xmlns="http://www.w3.org/2000/svg">
<path d="M59.031 15.0416H46.809C45.801 7.45755 39.312 1.57996 31.5 1.57996C23.688 1.57996 17.199 7.45755 16.191 15.0416H3.96901C2.83501 15.0416 1.89001 15.9896 1.89001 17.1272V59.5975C1.89001 60.7351 2.83501 61.6831 3.96901 61.6831H59.094C60.228 61.6831 61.173 60.7351 61.173 59.5975V17.1272C61.11 15.9896 60.165 15.0416 59.031 15.0416ZM31.5 5.68796C37.8 5.68796 42.903 10.8072 42.903 17.1272C42.903 23.4472 37.8 28.5664 31.5 28.5664C25.2 28.5664 20.097 23.384 20.097 17.1272C20.097 10.8704 25.2 5.68796 31.5 5.68796ZM57.015 57.5119H5.98502V19.1496H16.191C17.199 26.7336 23.688 32.6112 31.5 32.6112C39.312 32.6112 45.801 26.7336 46.809 19.1496H57.015V57.5119Z" fill="white"/>
<path d="M29.61 23.0048L36.855 18.328C37.8 17.7592 37.8 16.432 36.855 15.8L29.61 11.1864C28.602 10.5544 27.342 11.2496 27.342 12.4504V21.7408C27.342 22.9416 28.665 23.6368 29.61 23.0048Z" fill="white"/>
<path d="M36.981 38.8048C32.697 38.8048 28.917 41.6488 26.523 46.3256C24.066 39.6264 19.215 35.0128 13.734 34.3808C12.6 34.2544 11.592 35.076 11.466 36.2136C11.34 37.3512 12.159 38.3624 13.293 38.4888C18.081 38.9944 22.239 44.1768 23.688 51.3184C23.94 52.5824 25.011 53.4672 26.271 53.5304H26.334C27.594 53.5304 28.602 52.7088 28.917 51.508C30.24 46.3888 33.453 42.976 36.918 42.976C38.052 42.976 38.997 42.028 38.997 40.8904C38.997 39.6896 38.115 38.8048 36.981 38.8048Z" fill="white"/>
<path d="M46.872 45.5671C49.6207 45.5671 51.849 43.3318 51.849 40.5743C51.849 37.8169 49.6207 35.5815 46.872 35.5815C44.1233 35.5815 41.895 37.8169 41.895 40.5743C41.895 43.3318 44.1233 45.5671 46.872 45.5671Z" fill="white"/>
</svg>
