<svg width="51" height="64" viewBox="0 0 51 64" fill="none" xmlns="http://www.w3.org/2000/svg">
<path d="M43.5711 1.51904H42.9421H37.6551H37.0261H31.7391H31.1101H25.8231H25.1941H19.8901H19.2611H13.9741H13.3451H8.05806H7.42906H1.51306V7.45824V8.08971V13.3974V14.0289V19.3366V19.9681V25.2758V25.9073V31.2321V31.8636V37.1713V37.8028V43.1105V43.742V49.6812H7.42906H8.05806H13.3451H13.9741H19.2611H19.8901H25.1771H25.8061H31.1101H31.7391H37.0261H37.6551H42.9421H43.5711H49.4871V43.742V43.1105V37.8028V37.1713V31.8636V31.2321V25.9244V25.2929V19.9681V19.3366V14.0289V13.3974V8.08971V7.45824V1.51904H43.5711ZM42.9421 25.2758H37.6551V19.9681H42.9421V25.2758ZM42.9421 43.1105H37.6551V37.8028H42.9421V43.1105ZM8.05806 25.9244H13.3451V31.2321H8.05806V25.9244ZM37.0261 25.2758H31.7391V19.9681H37.0261V25.2758ZM13.9741 25.9244H19.2611V31.2321H13.9741V25.9244ZM37.0261 19.3366H31.7391V14.0289H37.0261V19.3366ZM31.1101 19.3366H25.8231V14.0289H31.1101V19.3366ZM31.1101 25.2758H25.8231V19.9681H31.1101V25.2758ZM19.8901 25.9244H25.1771V31.2321H19.8901V25.9244ZM19.8901 19.9681H25.1771V25.2758H19.8901V19.9681ZM25.8231 31.8636H31.1101V37.1713H25.8231V31.8636ZM25.1771 31.8636V37.1713H19.8901V31.8636H25.1771ZM13.9741 31.8636H19.2611V37.1713H13.9741V31.8636ZM37.0261 37.1713H31.7391V31.8636H37.0261V37.1713ZM31.1101 31.2321H25.8231V25.9244H31.1101V31.2321ZM25.1771 19.3366H19.8901V14.0289H25.1771V19.3366ZM19.2611 19.3366H13.9741V14.0289H19.2611V19.3366V19.3366ZM13.9741 19.9681H19.2611V25.2758H13.9741V19.9681ZM37.0261 31.2321H31.7391V25.9244H37.0261V31.2321ZM37.0261 13.3974H31.7391V8.08971H37.0261V13.3974ZM31.1101 13.3974H25.8231V8.08971H31.1101V13.3974ZM25.1771 13.3974H19.8901V8.08971H25.1771V13.3974ZM19.2611 13.3974H13.9741V8.08971H19.2611V13.3974V13.3974ZM8.05806 19.9681H13.3451V25.2758H8.05806V19.9681ZM8.05806 37.8028H13.3451V43.1105H8.05806V37.8028ZM42.9421 31.2321H37.6551V25.9244H42.9421V31.2321ZM37.6551 2.15051H42.9421V7.45824H37.6551V2.15051ZM31.7391 2.15051H37.0261V7.45824H31.7391V2.15051ZM25.8231 2.15051H31.1101V7.45824H25.8231V2.15051ZM19.8901 2.15051H25.1771V7.45824H19.8901V2.15051ZM13.9741 2.15051H19.2611V7.45824H13.9741V2.15051ZM8.05806 2.15051H13.3451V7.45824H8.05806V2.15051ZM2.14206 2.15051H7.42906V7.45824H2.14206V2.15051ZM2.14206 8.08971H7.42906V13.3974H2.14206V8.08971ZM2.14206 14.0289H7.42906V19.3366H2.14206V14.0289ZM2.14206 19.9681H7.42906V25.2758H2.14206V19.9681ZM2.14206 25.9244H7.42906V31.2321H2.14206V25.9244ZM2.14206 31.8636H7.42906V37.1713H2.14206V31.8636ZM2.14206 37.8028H7.42906V43.1105H2.14206V37.8028ZM7.42906 49.0497H2.14206V43.742H7.42906V49.0497ZM13.3451 49.0497H8.05806V43.742H13.3451V49.0497ZM19.2611 49.0497H13.9741V43.742H19.2611V49.0497V49.0497ZM25.1771 49.0497H19.8901V43.742H25.1771V49.0497ZM31.1101 49.0497H25.8231V43.742H31.1101V49.0497ZM37.0261 49.0497H31.7391V43.742H37.0261V49.0497ZM42.9421 49.0497H37.6551V43.742H42.9421V49.0497ZM48.8581 49.0497H43.5711V43.742H48.8581V49.0497ZM48.8581 43.1105H43.5711V37.8028H48.8581V43.1105ZM48.8581 37.1713H43.5711V31.8636H48.8581V37.1713ZM48.8581 31.2321H43.5711V25.9244H48.8581V31.2321ZM48.8581 25.2758H43.5711V19.9681H48.8581V25.2758ZM48.8581 19.3366H43.5711V14.0289H48.8581V19.3366ZM48.8581 13.3974H43.5711V8.08971H48.8581V13.3974ZM43.5711 7.45824V2.15051H48.8581V7.45824H43.5711Z" fill="white"/>
</svg>
