<svg width="52" height="65" viewBox="0 0 52 65" fill="none" xmlns="http://www.w3.org/2000/svg">
<g clip-path="url(#clip0)">
<path d="M29.536 3.90015C20.644 3.90015 13.052 9.36015 9.88 17.1081C10.036 17.0561 10.244 17.0561 10.4 17.0561C12.116 17.0561 13.78 17.7321 14.976 18.9281C16.172 20.1241 16.848 21.7361 16.796 23.4521V26.1041C18.876 26.2601 20.8 27.4041 21.892 29.2241C23.036 31.1481 23.088 33.4881 22.048 35.5161L18.096 42.9001C21.372 44.9801 25.324 46.2281 29.484 46.2281C41.132 46.2281 50.648 36.7121 50.648 25.0641C50.7 13.4161 41.184 3.90015 29.536 3.90015ZM38.168 27.8721H29.536C27.976 27.8721 26.78 26.6241 26.78 25.1161V14.1961C26.78 12.6881 27.976 11.4401 29.536 11.4401C31.044 11.4401 32.292 12.6881 32.292 14.1961V22.3081H38.168C39.728 22.3081 40.924 23.5561 40.924 25.0641C40.924 26.6241 39.728 27.8721 38.168 27.8721Z" fill="white"/>
<path d="M16.172 30.7841L12.896 31.2521C12.532 31.3041 12.168 31.0441 12.168 30.6281V23.4001C12.168 21.5281 9.67195 20.9041 8.78795 22.5681L1.50795 36.3481C0.831951 37.6481 1.92395 39.1561 3.32795 38.9481L6.60395 38.4801C6.96795 38.4281 7.33195 38.6881 7.33195 39.1041V46.3321C7.33195 48.2041 9.82795 48.8281 10.712 47.1641L18.044 33.4361C18.72 32.0841 17.628 30.5761 16.172 30.7841Z" fill="white"/>
</g>
<defs>
<clipPath id="clip0">
<rect width="52" height="65" fill="white"/>
</clipPath>
</defs>
</svg>
