<svg width="57" height="71" viewBox="0 0 57 71" fill="none" xmlns="http://www.w3.org/2000/svg">
<g clip-path="url(#clip0)">
<path d="M56.9948 27.207L56.9931 27.257C56.8609 30.6002 54.0359 33.2056 50.6781 33.0744C47.4855 32.9512 44.9655 30.3708 44.8407 27.2434L44.8373 27.1945C44.7125 23.8484 47.3327 21.0357 50.6912 20.9107C54.0502 20.7869 56.8711 23.398 56.996 26.7446C57.0017 26.8952 57.0017 27.0593 56.9948 27.207Z" fill="white"/>
<path d="M51.3917 43.6439L51.3643 43.6819C49.5586 46.1255 46.1118 46.6469 43.6591 44.8492C41.338 43.1463 40.7566 39.9513 42.2363 37.5458L42.262 37.5078C43.862 34.9257 47.2552 34.1259 49.8458 35.7163C52.4371 37.3101 53.2413 40.6937 51.6413 43.2752C51.5667 43.3974 51.4783 43.528 51.3917 43.6439Z" fill="white"/>
<path d="M37.8012 53.9588L37.7578 53.9741C35.1934 54.8937 32.3651 53.5657 31.4428 51.0109C30.569 48.5895 31.7375 45.9256 34.0409 44.8719L34.0836 44.8509C36.5648 43.7263 39.4929 44.8151 40.6238 47.2893C41.7558 49.7624 40.6609 52.6797 38.1791 53.8083C38.0577 53.8622 37.9243 53.9139 37.8012 53.9588Z" fill="white"/>
<path d="M21.0808 54.9311L21.0335 54.9192C18.6965 54.3392 17.2726 51.9781 17.8551 49.6504C18.408 47.4386 20.5877 46.0498 22.8067 46.4134L22.854 46.4207C25.2321 46.8178 26.8372 49.0574 26.4411 51.4271C26.0438 53.7945 23.7945 55.3963 21.4171 55.0004C21.3065 54.9828 21.1879 54.9566 21.0808 54.9311Z" fill="white"/>
<path d="M6.95455 46.602L6.9232 46.5663C5.52328 45.0162 5.65039 42.6295 7.2082 41.2322C8.68222 39.911 10.9223 39.9667 12.3428 41.2929L12.377 41.3253C13.9 42.7567 13.9695 45.148 12.5326 46.6674C11.0956 48.1851 8.6959 48.2561 7.17172 46.8241C7.09819 46.7543 7.02124 46.6747 6.95455 46.602Z" fill="white"/>
<path d="M0.0381348 32.1374L0.0318648 32.0892C-0.216085 30.3363 1.00998 28.7164 2.76957 28.4693C4.43625 28.2347 5.98779 29.3332 6.35601 30.9384L6.36684 30.9833C6.75672 32.7123 5.66802 34.427 3.93237 34.819C2.199 35.2075 0.475895 34.1215 0.0854448 32.393C0.0666348 32.3095 0.0501048 32.2198 0.0381348 32.1374Z" fill="white"/>
<path d="M2.35921 16.6122L2.38144 16.5701C3.01699 15.2598 4.59931 14.7122 5.91373 15.3467C7.16089 15.9482 7.71436 17.4068 7.22587 18.6718L7.20877 18.7155C6.67867 20.073 5.14708 20.7455 3.78478 20.2196C2.42248 19.6924 1.74646 18.1651 2.27485 16.8076C2.3005 16.7423 2.33014 16.6747 2.35921 16.6122Z" fill="white"/>
<path d="M12.7543 5.28224L12.7936 5.25952C13.7803 4.68413 15.0497 5.01584 15.6265 5.99962C16.1737 6.93114 15.8978 8.1194 15.0275 8.73057L14.9893 8.75669C14.0528 9.4116 12.7594 9.18553 12.1034 8.25117C11.4461 7.31738 11.6736 6.02859 12.6107 5.37425C12.6563 5.34301 12.7064 5.31064 12.7543 5.28224Z" fill="white"/>
<path d="M27.4067 1.74137L27.4557 1.74421C28.2822 1.79305 28.9109 2.50135 28.8619 3.32381C28.8146 4.10595 28.1631 4.712 27.3896 4.72677L27.3406 4.72734C26.5123 4.74097 25.8301 4.08266 25.8164 3.25793C25.8027 2.43205 26.4633 1.75216 27.2915 1.73853C27.3292 1.73909 27.3696 1.73966 27.4067 1.74137Z" fill="white"/>
<path d="M41.2394 6.83969L41.2753 6.86752C41.6812 7.17822 41.757 7.75701 41.4452 8.16086C41.1494 8.54312 40.6102 8.62946 40.2077 8.37329L40.1713 8.34773C39.7398 8.06998 39.6166 7.49857 39.8954 7.06973C40.1735 6.64146 40.7481 6.5182 41.1779 6.79709C41.1967 6.80959 41.2189 6.82549 41.2394 6.83969Z" fill="white"/>
<path d="M49.6623 18.499L49.6766 18.5433C49.737 18.7268 49.6378 18.9261 49.4549 18.9875C49.2799 19.0465 49.0889 18.9585 49.0182 18.7926L49.0006 18.7517C48.923 18.5723 49.0063 18.3655 49.1864 18.2877C49.3648 18.2104 49.574 18.2934 49.6498 18.4729C49.6555 18.4814 49.6589 18.4899 49.6623 18.499Z" fill="white"/>
</g>
<defs>
<clipPath id="clip0">
<rect width="57" height="71" fill="white"/>
</clipPath>
</defs>
</svg>
