<svg width="65" height="81" viewBox="0 0 65 81" fill="none" xmlns="http://www.w3.org/2000/svg">
<path d="M18.4844 49.2076H8.78516C8.37891 49.2076 8.02344 48.8532 8.02344 48.4482V53.0045C8.02344 53.4095 8.37891 53.7639 8.78516 53.7639H18.5352C18.9414 53.7639 19.2969 53.4095 19.2969 53.0045V48.4482C19.2461 48.9039 18.9414 49.2076 18.4844 49.2076Z" fill="white"/>
<path d="M18.4844 44.6512H8.78516C8.37891 44.6512 8.02344 44.2968 8.02344 43.8918V48.4481C8.02344 48.0431 8.37891 47.6887 8.78516 47.6887H18.5352C18.9414 47.6887 19.2969 48.0431 19.2969 48.4481V43.8918C19.2461 44.3475 18.9414 44.6512 18.4844 44.6512Z" fill="white"/>
<path d="M18.4844 34.0707H8.78516C8.37891 34.0707 8.02344 34.4251 8.02344 34.8301V39.3357C8.02344 38.9307 8.37891 38.5763 8.78516 38.5763H18.5352C18.9414 38.5763 19.2969 38.9307 19.2969 39.3357V34.8301C19.2461 34.4251 18.9414 34.0707 18.4844 34.0707Z" fill="white"/>
<path d="M18.4844 40.0951H8.78516C8.37891 40.0951 8.02344 39.7407 8.02344 39.3357V43.8919C8.02344 43.4869 8.37891 43.1326 8.78516 43.1326H18.5352C18.9414 43.1326 19.2969 43.4869 19.2969 43.8919V39.3357C19.2461 39.7913 18.9414 40.0951 18.4844 40.0951Z" fill="white"/>
<path d="M36.7656 18.2756H27.0156C26.6094 18.2756 26.2539 18.63 26.2539 19.035V53.0044C26.2539 53.4094 26.6094 53.7638 27.0156 53.7638H36.7656C37.1719 53.7638 37.5273 53.4094 37.5273 53.0044V19.035C37.5273 18.63 37.1719 18.2756 36.7656 18.2756Z" fill="white"/>
<path d="M54.9961 6.17627H45.2969C44.8906 6.17627 44.5352 6.53064 44.5352 6.93564V53.055C44.5352 53.46 44.8906 53.8144 45.2969 53.8144H55.0469C55.4531 53.8144 55.8086 53.46 55.8086 53.055V6.93564C55.7578 6.48002 55.4531 6.17627 54.9961 6.17627Z" fill="white"/>
<path d="M61.0898 58.6237H3.91016C3.50391 58.6237 3.14844 58.2693 3.14844 57.8644C3.14844 57.4594 3.50391 57.105 3.91016 57.105H61.0898C61.4961 57.105 61.8516 57.4594 61.8516 57.8644C61.8516 58.2693 61.4961 58.6237 61.0898 58.6237Z" fill="white"/>
</svg>
